
    	<svg xmlns="http://www.w3.org/2000/svg" viewBox="0 0 1440 320"><path fill="#fff" fill-opacity="1" d="M0,128L30,117.3C60,107,120,85,180,90.7C240,96,300,128,360,144C420,160,480,160,540,160C600,160,660,160,720,144C780,128,840,96,900,69.3C960,43,1020,21,1080,58.7C1140,96,1200,192,1260,208C1320,224,1380,160,1410,128L1440,96L1440,320L1410,320C1380,320,1320,320,1260,320C1200,320,1140,320,1080,320C1020,320,960,320,900,320C840,320,780,320,720,320C660,320,600,320,540,320C480,320,420,320,360,320C300,320,240,320,180,320C120,320,60,320,30,320L0,320Z"></path></svg>